<?xml version="1.0" standalone="no"?>
<!DOCTYPE svg PUBLIC "-//W3C//DTD SVG 20010904//EN"
 "http://www.w3.org/TR/2001/REC-SVG-20010904/DTD/svg10.dtd">
<svg version="1.0" xmlns="http://www.w3.org/2000/svg"
 width="960.000000pt" height="960.000000pt" viewBox="0 0 960.000000 960.000000"
 preserveAspectRatio="xMidYMid meet">
<metadata>
Created by potrace 1.16, written by Peter Selinger 2001-2019
</metadata>
<g transform="translate(0.000000,960.000000) scale(0.100000,-0.100000)"
fill="#000000" stroke="none">
<path d="M9055 8054 c-5 -1 -89 -28 -185 -58 -199 -63 -237 -74 -600 -166 -60
-15 -122 -28 -190 -40 -36 -6 -99 -18 -140 -26 -128 -24 -146 -25 -165 -4 -9
10 -24 51 -33 92 -12 48 -22 73 -32 73 -7 0 -47 -46 -88 -103 -52 -72 -85
-108 -112 -122 -43 -22 -55 -46 -46 -94 5 -25 0 -41 -19 -70 -14 -20 -25 -47
-25 -59 -1 -20 -4 -18 -35 15 -47 51 -69 61 -117 53 -70 -12 -105 -33 -159
-95 -30 -33 -59 -60 -65 -60 -7 0 -15 18 -19 39 -4 22 -13 42 -21 45 -17 7
-159 -26 -201 -46 -35 -17 -37 -42 -3 -46 37 -5 43 -15 42 -70 -2 -66 -15 -97
-57 -136 -19 -19 -35 -38 -35 -45 0 -6 -4 -11 -9 -11 -5 0 -12 -8 -14 -17 -2
-10 -2 5 0 32 6 61 -10 156 -35 204 -37 73 -136 92 -231 45 -29 -15 -88 -61
-130 -103 -82 -80 -128 -158 -155 -262 -6 -27 -15 -46 -19 -43 -4 4 -7 2 -7
-4 0 -7 -7 -12 -16 -12 -24 0 -43 -30 -44 -67 0 -18 -3 -33 -8 -33 -8 0 -32
-70 -32 -94 0 -8 -7 -16 -15 -19 -13 -5 -13 -10 0 -42 9 -19 13 -35 10 -35
-15 0 -45 38 -45 57 0 12 -4 24 -9 28 -6 3 -13 24 -16 48 -6 39 19 133 55 212
17 37 70 242 90 346 11 57 26 170 32 250 17 220 -6 343 -74 393 -26 18 -32 19
-80 7 -29 -8 -60 -19 -68 -26 -8 -7 -30 -20 -48 -29 -75 -38 -162 -161 -184
-259 -5 -27 -12 -46 -14 -44 -3 2 -11 44 -18 93 -8 49 -19 101 -24 116 -13 33
-47 52 -86 50 -36 -3 -140 -76 -182 -129 -66 -82 -133 -250 -158 -396 -14 -79
-37 -131 -61 -140 -8 -4 -15 -18 -15 -34 0 -42 -11 -74 -23 -66 -10 6 -7 -13
8 -50 5 -12 -4 -8 -26 12 -51 47 -164 55 -238 17 -46 -24 -129 -99 -172 -157
-38 -51 -109 -181 -109 -201 0 -5 -7 -16 -15 -24 -8 -9 -15 -11 -15 -5 0 6 -7
11 -15 11 -9 0 -12 -6 -9 -15 4 -9 -3 -19 -20 -26 -14 -7 -26 -15 -26 -19 0
-4 -11 -19 -25 -35 -21 -21 -23 -30 -14 -41 10 -12 8 -19 -10 -35 -19 -18 -21
-27 -15 -63 4 -22 6 -53 6 -67 0 -15 8 -36 19 -47 22 -24 25 -42 7 -43 -7 0
-2 -5 11 -10 23 -9 23 -10 6 -29 -59 -65 -186 -78 -263 -28 -64 43 -85 99 -84
225 0 140 35 252 99 324 53 58 104 77 141 53 18 -12 22 -21 17 -37 -19 -59
-17 -85 5 -97 33 -17 93 5 131 47 33 39 35 52 13 99 -34 72 -158 104 -270 68
-161 -50 -283 -193 -363 -424 -16 -45 -30 -77 -33 -70 -6 20 -37 -16 -31 -38
3 -13 -4 -22 -23 -30 -26 -12 -26 -13 -8 -27 18 -13 18 -14 2 -20 -23 -9 -24
-61 -2 -82 10 -11 14 -26 10 -45 -3 -15 -1 -28 4 -28 6 0 10 -8 9 -17 0 -11
-3 -13 -6 -5 -2 6 -12 12 -20 12 -13 0 -13 -3 -3 -15 7 -8 19 -15 26 -15 8 0
14 -4 14 -10 0 -14 -16 -12 -50 5 -30 15 -110 119 -186 241 l-45 73 48 63
c113 148 213 305 206 324 -3 8 -16 14 -29 14 -18 0 -38 -22 -95 -107 -71 -107
-157 -223 -164 -223 -2 0 -35 42 -74 94 -78 103 -101 123 -158 132 -45 7 -183
-20 -195 -38 -15 -25 -7 -55 25 -94 32 -38 117 -159 117 -167 0 -2 -7 -4 -15
-4 -8 0 -15 7 -15 14 0 8 -5 11 -11 8 -6 -4 -8 -9 -5 -13 3 -3 -2 -11 -12 -18
-13 -10 -14 -15 -5 -25 18 -18 4 -39 -26 -40 -26 0 -26 0 -3 -10 24 -9 22 -29
-4 -29 -8 0 -12 -5 -8 -11 3 -6 15 -9 25 -6 22 6 26 -11 4 -19 -8 -4 -15 -10
-15 -15 0 -5 7 -9 15 -9 8 0 15 -4 15 -10 0 -5 -7 -10 -15 -10 -26 0 -16 -20
18 -35 17 -8 25 -14 16 -15 -9 0 -19 -7 -23 -15 -3 -8 -13 -15 -21 -15 -9 0
-13 -5 -10 -10 4 -6 16 -8 27 -4 18 5 20 3 15 -15 -3 -14 1 -24 11 -30 16 -9
15 -11 -2 -24 -11 -8 -17 -21 -13 -30 3 -9 -10 -40 -32 -74 -75 -116 -169
-269 -185 -301 -12 -24 -32 -39 -74 -58 -145 -64 -256 -154 -288 -234 -13 -32
-26 -45 -69 -65 -29 -15 -83 -32 -120 -38 -60 -10 -76 -9 -153 11 -233 60
-362 215 -362 437 0 82 33 195 59 202 9 2 24 22 35 44 14 32 21 38 32 28 11
-9 14 -9 14 1 0 22 70 80 96 80 13 0 33 9 44 20 11 11 17 20 12 20 -4 0 6 7
22 15 15 8 37 15 47 15 12 0 21 10 25 27 7 24 8 25 20 8 11 -15 14 -16 19 -3
4 10 16 14 33 11 15 -1 21 0 15 3 -20 9 -15 26 6 19 14 -4 20 1 24 25 5 22 12
30 27 30 12 0 18 5 15 10 -3 6 3 10 14 10 16 0 21 6 21 25 0 13 6 28 13 32 16
11 17 75 0 68 -7 -2 -13 -1 -13 4 0 5 45 32 101 61 103 55 142 91 120 113 -8
8 -26 8 -74 -3 -34 -7 -105 -15 -158 -16 -87 -3 -100 -1 -130 19 -55 37 -79
82 -79 146 0 31 5 63 11 71 8 12 9 11 7 -7 -2 -12 0 -22 5 -23 29 -1 37 2 37
15 0 8 -4 15 -10 15 -5 0 -10 5 -10 11 0 21 34 3 41 -21 7 -23 8 -24 14 -5 5
16 16 21 52 23 26 1 52 -3 60 -9 9 -8 17 -8 27 0 14 12 129 10 159 -4 10 -4
23 -2 31 4 9 8 16 8 20 2 8 -12 47 -11 64 2 7 5 39 7 75 3 58 -6 61 -5 42 10
-11 9 -14 14 -6 12 8 -2 31 1 50 8 34 12 36 15 35 56 -1 23 1 37 3 31 7 -20
33 -15 33 6 0 11 4 22 10 26 11 7 2 35 -12 35 -6 0 -17 -8 -24 -17 -8 -11 -13
-13 -14 -5 0 8 -21 12 -72 12 -60 0 -240 27 -372 57 -20 4 -27 3 -22 -6 4 -6
1 -11 -8 -11 -20 0 -30 17 -14 23 10 4 10 6 0 6 -8 1 -25 -8 -39 -19 -36 -28
-41 -16 -7 14 21 19 36 24 54 20 14 -3 72 -17 130 -31 140 -33 337 -42 433
-19 175 41 271 138 238 239 -15 44 -46 73 -100 92 -56 20 -97 19 -261 -5 -145
-20 -317 -69 -429 -120 -69 -32 -69 -32 -122 -17 -59 17 -186 42 -262 52 -77
10 -337 7 -412 -5 -79 -12 -141 -27 -170 -40 -189 -82 -262 -135 -339 -244
-51 -73 -97 -180 -104 -242 -2 -24 -8 -47 -13 -49 -14 -9 65 -147 118 -204 28
-31 74 -69 101 -84 57 -31 171 -62 182 -50 5 4 10 30 12 57 l3 48 -58 22
c-102 38 -181 122 -205 218 -18 72 -15 116 8 130 11 7 20 18 20 24 0 6 7 18
16 25 15 12 16 11 10 -9 -4 -12 -5 -22 -2 -22 3 0 10 15 15 33 7 25 9 27 10
10 1 -23 25 -31 36 -13 3 6 17 10 31 10 14 0 32 7 40 15 10 10 21 12 31 6 11
-6 22 -2 34 10 11 11 28 19 39 19 11 0 20 4 20 9 0 5 9 7 20 4 11 -3 20 -9 20
-14 0 -24 28 -5 34 22 3 17 10 28 15 24 6 -3 8 -12 4 -20 -6 -19 27 -21 45 -3
10 10 19 8 42 -5 20 -13 35 -15 47 -9 10 5 24 7 31 5 6 -3 12 2 12 11 0 10 -9
16 -25 16 -14 0 -25 -4 -25 -10 0 -5 -4 -10 -9 -10 -5 0 -7 9 -4 21 5 17 11
19 37 13 43 -9 46 -12 46 -39 0 -20 11 -30 51 -51 28 -14 54 -23 57 -19 4 3 1
10 -7 14 -9 6 -7 10 8 14 28 7 32 -3 21 -43 -5 -19 -7 -36 -5 -39 3 -2 5 2 5
10 0 11 2 11 10 -1 14 -22 12 -40 -5 -40 -17 0 -20 -16 -5 -25 5 -3 10 -1 10
6 0 7 3 10 6 7 3 -3 1 -14 -5 -25 -5 -10 -12 -31 -16 -46 -3 -15 -9 -25 -14
-22 -11 6 -23 -23 -15 -36 9 -15 -4 -55 -22 -74 -15 -15 -15 -22 -2 -78 9 -37
11 -64 6 -68 -12 -8 20 -21 32 -14 5 3 11 1 15 -4 3 -5 -16 -13 -42 -17 -202
-30 -503 -159 -653 -282 -152 -123 -247 -235 -314 -368 -50 -101 -70 -190 -70
-319 -1 -118 5 -136 81 -280 79 -149 252 -297 433 -371 113 -46 214 -65 341
-65 66 0 124 3 129 6 4 3 31 10 59 15 28 5 69 18 91 29 22 10 42 15 45 11 3
-5 -31 -22 -75 -39 -127 -48 -238 -71 -480 -99 -62 -7 -64 -8 -40 -21 43 -24
228 -23 360 1 63 12 117 25 120 29 3 3 21 10 40 14 42 9 110 42 110 54 0 5 13
11 29 14 16 3 41 18 56 32 16 14 32 25 36 25 12 0 64 54 61 63 -1 5 5 11 15
13 17 5 53 55 53 74 0 5 -7 7 -16 3 -28 -11 -4 21 56 74 30 26 90 83 132 126
72 73 104 95 92 63 -4 -10 2 -16 18 -18 14 -2 22 -9 20 -19 -1 -9 7 -24 18
-34 11 -10 20 -24 20 -32 0 -7 7 -16 15 -19 20 -8 9 -24 -16 -24 -10 0 -19 -3
-19 -7 0 -8 -60 -38 -98 -48 -25 -7 -46 -40 -38 -60 2 -7 -4 -23 -15 -36 -21
-24 -26 -44 -7 -33 7 5 9 0 6 -14 -5 -17 0 -22 22 -27 16 -3 41 -17 56 -30 16
-14 41 -27 57 -31 16 -3 31 -13 34 -22 3 -10 13 -25 22 -35 20 -24 25 -245 6
-291 -9 -21 -10 -37 -4 -48 6 -11 6 -25 1 -35 -5 -10 -13 -45 -16 -78 -9 -74
-31 -150 -53 -184 -81 -124 -314 -161 -420 -68 -38 33 -44 77 -17 129 21 41 7
54 -41 38 -90 -30 -63 -185 45 -256 46 -31 157 -64 212 -64 21 0 38 -4 38 -10
0 -21 -158 -31 -250 -14 -31 5 -33 4 -20 -8 53 -52 248 -71 345 -34 28 11 52
22 55 25 3 3 22 17 42 31 35 23 52 53 27 48 -6 -2 -13 2 -16 8 -2 6 18 25 45
43 73 46 119 102 173 208 63 123 93 224 164 543 46 210 46 210 74 217 14 3 29
10 32 15 6 9 42 17 102 22 34 3 46 14 27 26 -12 7 -7 11 18 16 22 5 32 12 32
25 0 11 -5 19 -11 19 -7 0 -9 10 -7 25 3 14 0 25 -6 26 -6 0 -2 5 9 10 15 7 9
8 -20 4 l-40 -6 32 20 c18 11 55 32 83 46 54 27 66 56 30 75 -21 11 -48 6
-199 -36 -45 -13 -86 -22 -91 -19 -8 5 -8 12 16 150 9 55 21 105 26 111 14 18
165 29 184 13 13 -10 16 -9 20 9 4 15 14 20 34 20 15 -1 33 3 40 7 7 4 30 9
52 11 22 1 47 9 56 17 10 8 34 17 55 21 20 4 37 10 37 15 0 4 18 14 39 21 37
12 95 70 70 70 -6 0 -1 9 12 20 20 17 22 21 9 29 -13 9 -12 12 5 26 18 15 18
16 2 11 -37 -12 -72 -19 -67 -13 3 3 36 17 75 32 75 28 115 58 115 86 0 19
-33 35 -50 24 -5 -3 -10 -1 -10 4 0 6 7 11 15 11 8 0 15 5 15 10 0 6 7 10 16
10 8 0 12 -4 9 -10 -3 -5 -1 -10 4 -10 6 0 11 4 11 9 0 15 41 24 52 13 6 -6
17 -8 26 -5 10 4 13 2 8 -5 -5 -8 0 -12 12 -12 11 0 22 -7 25 -14 4 -11 16
-13 41 -9 20 3 42 1 49 -5 8 -7 18 -7 27 -2 8 6 27 10 43 10 17 0 27 5 27 15
0 10 10 15 28 15 17 0 37 9 48 21 10 12 29 25 42 30 13 5 22 17 22 29 0 13 7
20 20 20 13 0 28 13 41 35 12 19 25 35 31 35 5 0 6 5 2 11 -3 6 -15 8 -26 6
-15 -4 -17 -3 -8 8 14 17 62 -4 55 -24 -4 -11 -3 -12 10 -1 8 7 12 16 9 21 -2
5 10 2 28 -5 18 -8 33 -20 33 -27 0 -8 14 -18 30 -24 17 -5 33 -14 36 -18 8
-11 102 -12 149 -2 19 4 43 14 52 22 10 9 24 13 33 9 16 -6 38 30 28 47 -2 4
-1 7 4 7 8 0 9 -63 3 -260 -2 -58 -5 -88 -7 -68 -3 27 -8 35 -18 31 -11 -3
-12 -10 -6 -22 7 -11 5 -22 -7 -35 -13 -14 -14 -20 -4 -23 16 -6 16 -24 0 -20
-8 1 -14 -9 -14 -23 -4 -65 -5 -117 -2 -135 2 -13 -2 -19 -11 -17 -9 2 -11 -3
-7 -13 3 -9 6 -24 7 -33 0 -14 2 -13 9 3 8 19 9 19 9 -2 1 -13 -4 -23 -10 -23
-6 0 -9 -12 -7 -27 2 -16 8 -27 15 -26 7 2 10 -4 6 -12 -4 -12 -9 -13 -19 -4
-11 9 -14 8 -14 -5 0 -10 5 -26 11 -37 8 -15 7 -24 -2 -35 -6 -8 -9 -18 -5
-21 4 -4 12 -1 17 7 7 11 9 3 5 -27 -4 -32 -2 -43 11 -47 19 -8 8 -22 -22 -29
-15 -4 -13 -5 8 -6 17 -1 27 -7 27 -17 0 -8 5 -12 10 -9 6 3 10 2 10 -4 0 -19
-19 -21 -29 -4 -14 24 -14 7 0 -19 11 -20 11 -19 41 8 33 31 30 19 -10 -34
l-25 -33 -23 41 c-28 49 -81 99 -153 147 -30 19 -61 41 -68 49 -8 7 -20 17
-27 21 -20 12 -66 83 -66 102 1 9 10 27 21 41 28 33 89 34 121 3 21 -22 21
-22 3 -63 -18 -41 -18 -41 3 -62 25 -25 81 -30 106 -9 42 35 40 138 -5 195
-65 83 -219 73 -314 -19 -65 -64 -89 -121 -88 -217 0 -43 -4 -78 -8 -78 -5 0
-9 -9 -9 -21 0 -11 -5 -17 -10 -14 -25 16 -62 -62 -65 -137 -1 -27 -7 -53 -13
-57 -12 -7 -13 -101 0 -101 5 0 7 -4 3 -10 -3 -5 -13 -6 -23 -3 -15 6 -15 5
-3 -10 7 -9 10 -17 7 -17 -4 0 -2 -9 3 -19 19 -35 -38 -120 -81 -121 -27 0
-31 38 -24 216 3 90 9 239 13 330 l6 167 -68 -8 c-86 -9 -94 -12 -101 -41 -3
-13 -7 -24 -8 -24 0 0 -19 7 -41 15 -114 41 -249 -9 -374 -138 -49 -51 -131
-168 -131 -187 0 -6 -9 -15 -20 -22 -11 -7 -20 -18 -20 -25 0 -7 -7 -13 -15
-13 -10 0 -15 -10 -15 -27 0 -27 -20 -94 -31 -103 -8 -7 -20 -89 -26 -170 -4
-60 8 -147 27 -195 24 -64 31 -75 44 -75 8 0 19 -13 24 -29 6 -16 20 -34 31
-41 42 -22 36 -25 -129 -79 -52 -17 -114 -38 -138 -46 -149 -53 -270 -155
-323 -271 -28 -62 -31 -76 -27 -144 10 -173 146 -316 292 -308 46 3 51 5 51
27 0 19 -8 27 -37 37 -44 15 -110 59 -152 100 -66 65 -86 175 -50 264 32 80
84 129 189 180 110 53 275 97 275 72 0 -10 -41 -45 -47 -39 -2 3 -15 -5 -28
-17 -42 -38 -83 -66 -97 -66 -7 0 -26 -13 -41 -30 -16 -17 -33 -30 -38 -30 -5
0 -9 -7 -9 -15 0 -18 42 -43 48 -27 4 12 41 4 63 -14 9 -8 18 -11 22 -8 3 3
10 -4 17 -15 6 -12 17 -21 25 -21 8 0 17 -12 20 -27 4 -16 11 -37 17 -48 6
-11 15 -90 20 -175 7 -139 17 -207 48 -320 5 -19 11 -48 14 -65 10 -61 24
-111 46 -158 28 -63 144 -181 203 -207 25 -11 47 -26 50 -33 3 -9 8 -9 20 2
10 7 17 18 17 23 0 11 -26 39 -37 38 -3 0 -8 5 -9 12 -1 7 -9 33 -18 57 -9 24
-16 45 -16 47 0 10 31 1 90 -27 180 -85 326 -106 515 -73 144 24 285 72 494
165 159 72 240 99 439 149 188 47 190 36 11 -52 -86 -43 -161 -78 -166 -78
-10 0 -43 -32 -43 -42 0 -2 14 -2 31 0 18 3 26 8 19 12 -6 4 26 10 71 14 46 4
88 11 93 15 6 5 43 14 81 20 39 7 111 23 160 38 50 14 106 27 125 28 19 1 49
7 65 14 17 7 49 14 72 16 24 1 49 7 55 13 7 5 38 13 68 17 30 4 61 12 68 18
12 9 76 25 127 30 11 1 25 6 32 10 6 4 39 10 72 14 34 3 64 10 67 14 3 5 23 9
46 9 45 0 204 28 229 40 8 4 27 6 42 3 15 -3 27 -1 27 5 0 5 24 12 53 16 104
13 123 15 165 22 23 3 45 10 48 15 3 5 20 9 37 10 18 0 41 4 52 8 11 5 25 5
30 1 6 -4 27 -5 49 -2 24 3 33 7 26 12 -15 9 94 34 115 26 7 -2 16 2 19 10 4
9 21 14 51 14 36 0 45 4 45 17 0 15 1 15 13 -1 13 -18 14 -18 20 -1 6 14 15
16 45 11 25 -4 31 -3 17 3 -17 8 -13 10 23 16 23 4 42 13 42 19 0 6 5 4 10 -4
9 -13 11 -13 19 0 6 8 13 11 17 7 4 -4 14 -1 23 7 9 8 27 16 41 18 14 2 24 8
23 14 -1 5 6 10 15 11 52 4 68 9 82 26 9 10 35 21 60 24 26 4 50 14 58 24 7
10 32 21 60 25 26 4 54 15 62 24 8 9 21 15 28 12 7 -2 21 3 31 12 10 9 21 13
24 9 4 -3 7 -1 7 5 0 7 7 12 15 12 8 0 15 7 15 16 0 8 4 12 10 9 12 -7 70 22
70 35 0 6 7 10 15 10 9 0 18 7 21 15 5 11 11 12 24 5 27 -15 33 -12 27 11 -5
17 -1 20 21 18 37 -4 50 6 44 36 -3 19 -10 25 -31 25 -18 0 -22 -3 -13 -9 10
-6 8 -10 -10 -16 -12 -4 -26 -7 -30 -6 -4 0 -32 -10 -62 -24 -30 -14 -61 -25
-68 -25 -7 0 -24 -9 -38 -19 -18 -15 -29 -17 -43 -9 -10 5 -20 8 -21 6 -1 -2
-7 -15 -13 -29 -9 -22 -16 -25 -48 -21 -30 4 -37 1 -42 -17 -3 -11 -9 -21 -14
-21 -5 0 -6 7 -3 15 11 27 -21 16 -45 -15 -18 -25 -25 -28 -41 -20 -29 16 -45
13 -30 -5 11 -13 8 -15 -13 -15 -14 0 -29 5 -33 12 -5 8 -10 7 -18 -3 -6 -8
-30 -20 -53 -27 -24 -7 -43 -17 -43 -21 0 -5 -17 -7 -37 -6 -23 3 -48 -2 -62
-12 -18 -11 -26 -13 -29 -5 -2 7 -13 12 -23 12 -11 0 -17 -4 -14 -10 6 -10 -7
-14 -32 -11 -16 2 -17 -11 -1 -27 7 -7 8 -12 2 -12 -5 0 -20 12 -33 26 -21 21
-22 27 -10 36 11 7 9 9 -8 5 -13 -3 -23 -1 -23 3 0 5 19 11 43 15 58 9 147 35
397 116 373 121 673 267 932 452 120 86 328 274 328 297 0 27 -21 36 -36 15
-8 -10 -17 -16 -20 -12 -4 3 -15 -5 -26 -18 -11 -14 -24 -23 -29 -19 -5 3 -23
-5 -40 -17 -21 -14 -27 -24 -19 -29 8 -5 7 -9 -5 -13 -9 -4 -13 -3 -10 3 12
20 -8 9 -128 -71 -67 -44 -169 -103 -227 -130 -58 -28 -112 -54 -121 -59 -59
-31 -276 -111 -369 -136 -30 -8 -64 -17 -75 -20 -18 -5 -18 -4 3 11 12 9 22
26 22 39 0 12 3 26 7 30 13 12 10 46 -4 46 -8 0 15 24 50 54 72 61 102 118
113 207 12 103 -42 223 -135 297 -25 20 -49 41 -52 45 -3 5 -12 10 -20 11 -29
6 -49 18 -43 27 3 5 -2 9 -10 9 -9 0 -16 4 -16 9 0 5 -12 11 -27 14 -42 8
-109 62 -117 93 -15 60 45 124 117 124 53 0 81 -39 74 -102 -5 -36 -2 -48 9
-52 129 -50 188 151 63 215 -37 18 -55 21 -128 17 -71 -4 -97 -10 -147 -36
-34 -17 -79 -51 -101 -76 -52 -59 -68 -115 -60 -209 6 -65 5 -70 -8 -53 -15
19 -15 19 -15 -2 0 -13 -7 -25 -15 -28 -8 -4 -15 -15 -15 -25 0 -11 -9 -27
-20 -36 -11 -10 -20 -28 -20 -40 0 -13 -4 -23 -10 -23 -5 0 -8 -18 -5 -40 2
-22 -1 -40 -6 -40 -5 0 -9 -7 -9 -16 0 -8 4 -13 9 -10 5 4 13 -8 16 -26 4 -18
12 -36 17 -39 13 -8 -76 -180 -110 -214 -14 -15 -46 -35 -70 -47 -38 -17 -51
-18 -88 -9 -78 20 -154 77 -196 148 -16 27 -16 29 0 30 9 1 29 5 45 9 17 4 27
2 27 -5 0 -6 -8 -11 -19 -11 -27 0 -36 -41 -10 -47 10 -3 19 -13 20 -22 0 -12
2 -13 6 -2 3 8 -3 21 -13 28 -19 14 -19 14 1 26 11 7 29 14 39 17 18 5 18 7 5
20 -14 12 -8 22 49 79 35 36 67 72 71 80 3 9 27 48 52 86 74 114 116 241 105
320 -8 63 -41 122 -79 142 -82 44 -231 8 -344 -84 -29 -24 -57 -43 -62 -43
-15 0 -87 -102 -124 -176 -24 -47 -42 -103 -53 -167 -10 -55 -22 -95 -28 -94
-6 1 -12 -8 -14 -21 -3 -17 -10 -23 -25 -22 -36 3 -39 1 -23 -22 9 -12 16 -32
15 -43 -1 -16 -2 -16 -8 5 -7 25 -7 24 -19 -9 -14 -39 0 -69 19 -41 8 11 8 9
3 -10 -14 -51 -1 -162 22 -181 12 -10 12 -14 2 -20 -9 -6 -6 -9 10 -9 19 0 22
-5 22 -35 0 -23 5 -35 14 -35 8 0 17 -11 20 -25 3 -13 15 -29 26 -35 11 -6 20
-18 20 -28 0 -9 9 -23 20 -30 11 -7 20 -19 20 -27 0 -8 6 -15 14 -15 8 0 22
-10 30 -22 11 -15 16 -18 16 -8 0 11 5 9 18 -6 14 -18 26 -21 72 -19 76 3 140
15 140 26 0 4 7 6 15 3 21 -8 67 4 60 16 -3 6 5 10 19 10 16 0 32 10 46 29 11
17 30 33 41 36 16 5 18 10 9 20 -14 17 -5 35 16 35 10 0 13 6 10 18 -5 13 3
26 26 43 17 13 39 32 47 42 18 20 32 22 25 3 -3 -9 4 -16 21 -20 34 -9 86 -46
79 -58 -3 -4 5 -8 17 -8 12 0 42 -12 66 -26 24 -14 57 -26 74 -26 39 -1 24
-17 -27 -29 -111 -26 -287 -63 -448 -94 -100 -19 -248 -51 -331 -71 -82 -20
-166 -40 -185 -44 -121 -26 -552 -135 -635 -160 -55 -16 -129 -37 -165 -46
-73 -18 -170 -50 -275 -89 -38 -15 -108 -40 -155 -57 -47 -17 -89 -33 -95 -37
-5 -4 -28 -13 -50 -20 -65 -21 -115 -44 -115 -53 0 -4 -6 -8 -13 -8 -8 0 -41
-13 -75 -30 -34 -16 -68 -30 -75 -30 -7 0 -17 -4 -23 -9 -12 -12 -242 -100
-390 -150 -242 -81 -340 -98 -449 -81 -111 18 -205 68 -205 110 0 10 34 87 75
173 41 86 75 159 75 162 0 3 7 17 16 31 16 23 18 24 35 8 11 -10 19 -25 19
-34 0 -10 6 -20 14 -23 7 -3 16 -16 19 -29 13 -58 51 -145 73 -167 13 -13 24
-28 24 -32 0 -18 121 -90 160 -96 55 -7 156 34 147 60 -1 5 -21 17 -44 26
l-41 16 62 1 c132 1 250 104 351 306 25 51 49 95 52 98 4 3 3 0 -1 -7 -4 -7
-3 -25 1 -40 l7 -28 7 25 c7 25 7 25 8 2 1 -14 5 -20 12 -17 6 4 13 -2 16 -14
5 -21 30 -40 100 -78 37 -19 52 -21 110 -16 43 4 77 13 92 25 13 10 30 18 38
18 8 0 25 12 39 28 15 15 33 27 42 27 8 0 17 6 20 14 3 10 0 12 -11 8 -9 -3
-19 -2 -22 4 -7 11 20 23 34 15 16 -10 290 -15 296 -5 4 5 21 9 38 9 22 0 28
3 18 9 -10 7 -4 15 28 36 22 15 41 32 41 37 0 5 7 16 15 24 8 9 15 25 15 38 0
12 6 28 13 35 12 14 10 14 -40 -6 -10 -4 0 8 22 27 22 19 59 52 83 74 42 40
51 42 32 6 -9 -16 -8 -18 7 -13 13 5 15 3 10 -12 -4 -9 -3 -23 3 -30 5 -7 11
-24 12 -40 2 -16 15 -37 33 -53 16 -14 29 -28 28 -32 -4 -14 66 -10 80 5 9 8
26 15 38 15 22 0 22 0 3 15 -16 12 -16 14 -3 15 19 0 30 31 19 51 -5 8 -7 29
-5 48 2 31 7 36 61 58 92 37 89 30 76 195 -16 190 -24 409 -14 378 6 -19 15
-25 38 -26 17 0 37 -4 43 -9 7 -4 18 0 25 11 12 16 15 16 37 1 33 -23 53 -22
46 3 -3 11 -1 23 4 26 5 3 9 25 9 49 0 33 4 45 18 48 15 4 14 5 -2 6 -20 1
-20 1 -1 15 18 13 17 14 -10 9 -26 -4 -28 -3 -11 8 68 43 96 88 96 154 0 93
-48 145 -135 145 -54 0 -88 -16 -132 -62 -35 -37 -72 -111 -73 -145 0 -47 -17
-20 -28 44 -6 36 -16 71 -21 76 -11 11 -197 -25 -235 -45 -19 -10 -18 -12 8
-31 l27 -20 -29 -17 c-23 -14 -32 -29 -37 -60 -4 -27 -3 -46 4 -53 16 -16 13
-30 -4 -23 -11 4 -19 -3 -25 -19 -5 -14 -15 -25 -22 -25 -9 0 -8 -3 2 -10 13
-8 13 -13 -3 -41 -12 -22 -15 -35 -7 -43 16 -16 12 -26 -12 -27 -17 -1 -19 -2
-5 -6 9 -2 17 -13 17 -23 0 -10 6 -21 13 -24 9 -3 8 -8 -3 -18 -23 -20 -21
-49 4 -69 17 -14 22 -25 18 -49 -2 -17 2 -37 9 -47 10 -12 10 -14 2 -9 -9 5
-13 0 -13 -14 0 -11 7 -23 15 -26 8 -4 12 -10 9 -16 -10 -15 -12 -58 -3 -58 4
0 10 9 14 19 3 11 13 25 22 33 12 10 11 4 -5 -27 -36 -71 -114 -166 -149 -183
-33 -16 -36 -16 -49 3 -8 10 -14 30 -14 44 -5 842 3 773 -85 746 -64 -19 -115
-50 -115 -70 0 -12 -6 -14 -27 -8 -16 5 -57 8 -93 7 -85 -1 -153 -33 -253
-119 -107 -91 -187 -205 -212 -300 -7 -26 -10 -17 -21 56 -15 99 -55 197 -104
252 -34 40 -96 77 -127 77 -10 0 -25 5 -33 11 -11 8 -1 9 37 6 37 -3 56 0 64
9 7 9 33 14 70 14 33 0 69 5 82 12 12 6 28 14 36 17 13 6 65 91 55 91 -2 0 0
9 6 20 8 15 8 20 -2 20 -26 1 25 29 74 40 56 14 73 39 64 100 -3 19 -8 124
-12 233 -5 142 -3 197 5 197 6 0 11 -19 11 -46 0 -27 4 -43 10 -39 6 3 10 1
10 -4 0 -6 -4 -11 -10 -11 -5 0 -9 -11 -8 -24 1 -14 6 -22 10 -20 14 9 48 -7
48 -22 0 -10 -7 -13 -25 -8 -30 8 -33 -4 -4 -14 20 -8 20 -9 4 -25 -17 -18
-14 -20 23 -17 22 1 30 -14 13 -24 -5 -4 -3 -20 6 -37 11 -22 12 -34 5 -41 -8
-8 -8 -17 -1 -31 8 -14 8 -18 0 -13 -6 4 -11 1 -11 -6 0 -7 9 -19 20 -26 11
-7 20 -19 20 -28 0 -8 9 -25 21 -37 11 -12 23 -34 26 -48 6 -31 37 -48 104
-56 41 -5 48 -3 58 16 7 12 21 21 36 21 15 0 29 9 36 22 17 31 32 45 55 50 12
2 18 10 16 22 -3 14 0 16 17 7 10 -6 21 -16 24 -23 3 -10 10 -8 26 6 21 19 21
19 22 -5 0 -22 1 -22 8 -4 7 18 8 18 18 1 11 -20 105 -41 111 -25 2 5 8 9 14
9 5 0 16 7 25 15 8 9 23 13 32 10 11 -3 22 5 34 25 10 17 27 30 37 30 10 0 27
13 36 29 14 23 26 30 58 33 23 3 53 1 69 -3 18 -5 31 -3 39 5 9 9 24 10 56 4
37 -6 49 -4 74 13 16 12 32 18 35 15 10 -9 43 25 43 44 0 9 -5 21 -12 28 -9 9
-8 12 5 12 19 0 23 15 5 26 -7 4 -8 3 -4 -4 8 -13 -14 -14 -53 -3 -36 10 -9
26 69 40 125 24 223 94 338 239 23 30 42 51 42 47 0 -4 -8 -17 -18 -30 -21
-26 -24 -113 -5 -137 5 -7 13 -21 16 -30 4 -12 17 -18 36 -18 38 0 88 19 76
28 -18 13 -14 42 6 42 10 0 19 5 19 10 0 6 -7 10 -15 10 -27 0 -16 18 18 29
17 6 54 26 80 44 l49 32 -6 80 c-4 44 -16 129 -26 189 -35 192 -22 306 46 398
36 50 101 91 137 86 32 -4 57 -62 57 -128 0 -72 -9 -104 -24 -91 -19 16 -78
-5 -111 -39 l-28 -30 17 -57 c9 -32 18 -71 20 -88 4 -36 32 -101 46 -110 6 -4
8 -10 5 -15 -3 -5 -1 -11 5 -15 13 -8 51 -95 45 -105 -3 -5 6 -22 20 -38 14
-16 25 -35 25 -41 0 -6 5 -11 10 -11 6 0 10 -6 10 -13 0 -22 74 -49 103 -38
14 5 28 15 32 20 3 6 15 11 26 11 10 0 19 7 19 15 0 26 1 30 15 45 12 14 11
17 -5 28 -24 15 -26 32 -4 32 9 0 45 14 79 30 120 58 195 176 217 346 9 67 9
86 -2 99 -19 23 -25 12 -50 -95 -37 -156 -73 -209 -141 -210 -42 0 -74 29 -90
81 -5 19 -16 99 -24 179 -26 250 -53 325 -131 350 -40 14 -113 0 -178 -32 -48
-24 -142 -112 -162 -150 -18 -34 -34 -36 -34 -5 0 13 -6 32 -14 42 -13 18 -15
18 -72 -7 -33 -15 -72 -30 -87 -34 -16 -3 -36 -18 -45 -33 -9 -14 -32 -40 -51
-57 -41 -36 -35 -54 20 -54 44 0 50 -11 17 -34 -12 -9 -19 -18 -15 -22 3 -3
-1 -13 -9 -21 -16 -17 -11 -48 14 -76 11 -12 16 -41 17 -100 0 -45 4 -88 8
-94 9 -15 0 -53 -28 -118 l-22 -49 -1 87 c-1 85 -9 127 -38 215 -22 66 -39 93
-86 139 -58 56 -120 86 -179 87 -49 1 -59 -7 -147 -113 -11 -13 -11 -12 -1 9
6 14 23 37 37 53 34 35 16 34 -64 -5 -143 -70 -223 -207 -224 -383 -1 -61 -2
-68 -14 -52 -13 16 -15 14 -29 -20 -11 -26 -16 -31 -16 -17 -2 40 -21 290 -27
331 -6 52 -28 61 -93 38 -50 -17 -65 -19 -57 -6 4 5 0 12 -6 15 -7 3 -5 4 4 3
24 -3 74 32 87 61 17 36 13 104 -8 138 -19 31 -74 64 -106 64 -9 0 -33 -8 -52
-17 -57 -27 -80 -106 -48 -167 19 -36 19 -35 -5 -29 -13 4 -29 -5 -50 -28 -24
-27 -30 -42 -30 -77 0 -26 4 -41 10 -37 6 3 10 -2 10 -12 0 -19 54 -73 72 -73
5 0 6 -9 3 -20 -4 -13 -2 -20 6 -20 18 0 -1 -17 -26 -23 -17 -4 -16 -5 4 -6
l25 -1 -28 -29 c-25 -26 -26 -30 -12 -44 19 -19 20 -28 4 -24 -10 1 -13 -18
-13 -71 0 -41 3 -76 8 -79 4 -2 7 -18 7 -34 0 -17 7 -37 15 -45 8 -9 15 -24
15 -34 0 -10 5 -22 10 -25 7 -4 7 -12 0 -25 -16 -31 -11 -37 10 -11 27 32 25
16 -5 -39 -14 -25 -30 -55 -36 -67 -17 -32 -48 -36 -59 -9 -5 13 -9 117 -9
232 -1 238 -7 295 -31 344 -24 48 -60 65 -134 65 -99 -1 -185 -62 -239 -168
l-24 -48 -7 62 c-8 79 -8 452 0 501 4 21 17 49 30 63 26 28 31 45 13 45 -6 0
-52 -16 -102 -36 -50 -20 -104 -40 -121 -45 l-31 -9 25 20 c14 11 29 20 34 20
4 0 6 6 3 14 -6 16 11 36 31 36 7 0 41 16 73 35 67 39 79 42 79 20 0 -8 9 -15
20 -15 21 0 44 -32 32 -45 -4 -5 1 -5 10 -2 11 4 15 2 12 -6 -3 -8 5 -13 17
-14 13 -1 35 -7 51 -14 50 -21 178 6 178 37 0 7 6 17 13 21 24 15 76 102 64
107 -7 2 -4 5 5 5 10 1 31 9 49 20 l31 19 91 -40 c51 -22 102 -40 115 -39 12
0 22 -4 22 -10 0 -8 4 -8 13 -2 6 6 26 13 42 17 17 4 40 14 52 22 22 14 55 74
57 102 1 7 22 25 47 40 l47 26 37 -29 c119 -95 190 -113 294 -75 84 30 140 98
132 157 -1 6 25 27 56 47 75 47 93 58 109 74 20 19 27 15 64 -44 19 -31 43
-60 54 -66 24 -13 65 8 72 36 3 12 21 32 41 46 20 14 58 46 85 71 l48 46 0
119 c0 65 3 129 6 141 6 22 6 22 30 -6 13 -16 24 -35 24 -42 0 -7 7 -20 15
-29 9 -10 25 -54 35 -99 11 -45 26 -94 34 -110 55 -106 170 -132 210 -46 18
37 110 125 132 125 9 0 18 -9 21 -20 3 -11 10 -17 15 -14 5 3 12 -3 15 -14 8
-31 86 -81 137 -88 79 -11 151 52 110 97 -22 24 -14 32 52 53 153 50 231 160
241 341 5 75 3 93 -11 104 -30 25 -43 -2 -49 -107 -3 -72 -11 -110 -26 -139
-47 -94 -134 -123 -185 -62 -14 17 -28 40 -31 52 -18 81 -28 183 -30 323 -3
142 -6 165 -24 195 -26 42 -27 85 -3 98 9 5 49 14 87 20 39 7 97 16 130 22 33
5 89 14 125 19 266 36 582 113 717 175 17 8 34 15 37 15 4 0 37 14 74 32 70
33 122 73 122 94 0 13 -19 23 -35 18z m-2973 -141 c21 -60 17 -407 -6 -503
-16 -71 -53 -192 -82 -270 -7 -19 -15 -44 -18 -54 -12 -36 -27 -1 -32 75 -2
41 -9 110 -14 154 -5 44 -12 148 -16 230 -8 168 9 286 49 360 41 74 94 78 119
8z m-491 -80 c20 -23 16 -312 -4 -368 -13 -34 -16 -37 -22 -20 -3 11 -13 32
-21 47 -8 14 -14 33 -14 41 0 8 -7 17 -15 21 -8 3 -15 13 -15 22 0 16 -2 16
-20 -1 -11 -10 -20 -30 -20 -44 0 -14 -4 -32 -9 -39 -26 -41 -18 116 10 223
29 106 93 164 130 118z m1875 -520 c7 -21 8 -33 1 -36 -5 -1 -4 -9 4 -17 21
-22 79 -140 79 -161 0 -10 5 -21 10 -24 23 -14 8 -110 -24 -150 -19 -23 -26
-26 -42 -17 -36 19 -56 111 -60 279 -2 85 -5 157 -5 161 -1 4 -1 14 0 22 2 19
20 -10 37 -57z m-905 20 c12 -30 3 -146 -12 -175 -6 -10 -16 -18 -24 -18 -7 0
-17 -10 -20 -21 -6 -17 -9 -19 -16 -8 -8 12 -11 11 -19 -1 -5 -9 -21 -16 -37
-15 -28 0 -28 0 -26 64 2 44 11 78 29 114 34 70 52 87 86 87 22 0 31 -6 39
-27z m-3470 -44 c45 -16 79 -47 79 -75 0 -56 -119 -90 -283 -81 -104 6 -287
43 -287 59 0 4 7 8 15 8 8 0 38 11 67 24 56 26 172 62 223 69 63 9 153 7 186
-4z m-946 -99 c60 -12 113 -24 118 -27 4 -2 -5 -14 -20 -26 -15 -12 -48 -41
-72 -64 -24 -24 -48 -40 -54 -36 -6 3 -7 1 -3 -5 4 -6 -15 -39 -41 -73 -29
-39 -49 -57 -51 -48 -18 56 -22 60 -41 49 -13 -7 -22 -7 -26 0 -3 5 -14 10
-25 10 -26 0 -36 48 -13 65 22 16 18 21 -29 29 -25 5 -38 3 -38 -4 0 -7 -13
-4 -31 7 -25 14 -33 15 -36 5 -4 -10 -8 -10 -19 -1 -8 7 -29 9 -49 6 -23 -4
-40 -1 -49 9 -10 9 -17 11 -21 4 -4 -6 -14 -10 -23 -9 -10 1 -42 1 -72 0 -40
-1 -51 -4 -40 -11 8 -5 11 -10 5 -10 -5 0 -17 5 -25 10 -10 6 -20 3 -32 -10
-14 -15 -24 -17 -41 -11 -20 8 -34 1 -88 -40 -35 -27 -72 -60 -81 -72 -10 -12
-18 -18 -18 -13 0 18 52 77 103 115 121 91 247 141 447 175 56 10 262 -4 365
-24z m4580 -153 c-4 -18 -1 -46 6 -62 26 -63 19 -109 -26 -175 -47 -68 -130
-92 -193 -54 -38 22 -41 46 -9 67 23 15 137 124 137 131 0 2 14 19 31 37 18
19 36 46 41 62 13 37 20 34 13 -6z m-4800 -689 c-37 -20 -221 -212 -245 -256
-15 -27 -29 -41 -38 -37 -10 4 -12 -2 -7 -25 3 -16 1 -37 -5 -47 -10 -17 -10
-17 -8 2 2 12 -3 20 -12 20 -10 0 -14 -8 -12 -27 2 -16 -1 -28 -6 -28 -6 0
-13 -24 -16 -52 -3 -29 -8 -71 -11 -93 -3 -22 -5 -67 -6 -100 -1 -33 -5 -64
-9 -70 -12 -16 -6 -81 9 -99 9 -10 10 -16 2 -16 -13 0 -15 -36 -2 -45 6 -3 13
-27 16 -53 6 -44 15 -73 37 -115 5 -10 7 -21 4 -25 -9 -16 76 -157 118 -195
17 -15 45 -40 61 -56 33 -31 105 -71 130 -71 8 0 15 -4 15 -10 0 -5 9 -10 20
-10 26 0 26 -12 -1 -28 -85 -54 -284 -69 -417 -32 -217 60 -354 188 -444 415
-31 77 -32 86 -32 220 0 130 2 145 28 215 16 41 31 77 35 80 3 3 14 21 23 40
75 150 182 258 356 358 41 23 75 42 78 42 2 0 27 11 56 24 92 41 227 81 283
84 l20 1 -20 -11z m1356 -308 c-9 -5 -11 -15 -6 -26 5 -13 9 -15 12 -6 7 19
23 14 23 -7 0 -11 5 -23 10 -26 6 -4 10 -12 9 -18 -1 -7 2 -22 6 -35 5 -16 13
-21 26 -17 15 5 19 1 19 -15 0 -11 8 -24 18 -27 9 -4 22 -14 28 -22 10 -13 -8
-20 -130 -51 -78 -20 -163 -44 -190 -53 -27 -9 -51 -16 -52 -14 -3 3 134 225
153 247 64 77 76 90 82 85 3 -3 -1 -10 -8 -15z m3073 -90 c44 -21 96 -89 96
-125 0 -19 -2 -18 -20 5 -11 14 -18 18 -15 9 5 -13 -4 -17 -52 -22 -59 -6 -58
-5 -113 -74 -16 -19 -12 -36 6 -29 13 5 15 1 11 -19 -3 -20 2 -31 24 -48 16
-11 29 -29 29 -38 0 -10 5 -21 10 -24 6 -3 10 -13 10 -21 0 -8 9 -23 20 -34
11 -11 20 -29 20 -39 0 -11 5 -23 10 -26 6 -4 8 -16 4 -27 -4 -13 -2 -18 4
-14 6 3 13 2 17 -4 3 -5 1 -10 -6 -10 -9 0 -9 -4 1 -15 19 -22 3 -35 -45 -35
-39 0 -47 5 -79 42 -70 81 -112 252 -103 417 4 91 6 96 36 123 38 34 78 36
135 8z m-2496 -630 c23 -21 27 -54 12 -100 -8 -24 -8 -24 -9 -2 -1 26 -26 30
-36 5 -6 -17 -7 -17 -21 1 -12 16 -18 18 -39 8 -15 -7 -25 -8 -25 -2 0 18 -21
10 -46 -17 l-24 -28 10 28 10 28 -24 -18 c-14 -10 -29 -27 -35 -38 -7 -16 -10
-16 -10 -4 -1 24 61 98 109 130 51 34 97 37 128 9z m3171 -244 c19 -41 27
-116 12 -116 -7 0 -11 -8 -9 -17 2 -10 -11 -33 -29 -53 -20 -21 -31 -42 -27
-52 3 -10 -2 -21 -12 -26 -10 -5 -19 -18 -20 -28 -7 -45 -18 -80 -29 -94 -18
-22 -25 -58 -11 -64 7 -3 2 -13 -12 -25 -38 -33 -21 -47 18 -16 19 15 15 8
-10 -14 -25 -23 -52 -41 -60 -41 -9 0 -21 -5 -27 -11 -14 -14 -33 85 -33 175
0 72 20 186 42 241 22 57 70 117 117 146 54 35 71 34 90 -5z m-3349 -66 c0 -6
12 -22 26 -35 21 -19 24 -27 15 -43 -8 -15 -7 -21 4 -26 8 -3 15 -16 15 -28 0
-13 7 -34 16 -46 8 -12 13 -26 10 -31 -3 -5 1 -14 9 -21 17 -14 11 -34 -28
-82 -24 -32 -35 -38 -66 -38 -77 0 -120 66 -129 196 -5 93 4 166 19 143 8 -12
10 -12 18 0 7 11 9 11 14 0 4 -11 8 -10 23 4 20 19 54 23 54 7z m496 -365
c-15 -12 -15 -13 0 -19 25 -10 34 -7 28 9 -4 8 -1 15 5 15 10 0 12 -6 15 -50
1 -10 9 -14 25 -12 17 3 22 0 19 -10 -8 -18 16 -38 33 -28 8 5 19 4 27 -2 8
-7 21 -13 30 -14 82 -11 106 -20 113 -44 6 -21 7 -22 9 -5 1 11 2 23 1 27 0 4
13 5 29 1 19 -3 30 -1 30 6 0 6 -9 11 -20 11 -11 0 -20 5 -20 10 0 6 7 10 16
10 10 0 14 6 11 14 -4 11 3 11 46 -1 67 -20 121 -71 147 -140 23 -63 26 -91 5
-48 -17 34 -70 61 -80 41 -3 -6 -4 -2 -2 9 3 14 -2 21 -12 22 -9 1 -29 6 -45
13 -27 10 -28 12 -11 24 14 10 15 15 5 21 -8 5 -11 4 -7 -2 4 -6 -6 -16 -22
-21 -16 -6 -34 -19 -40 -30 -11 -21 -5 -52 9 -52 11 0 34 -69 26 -77 -3 -3 3
-18 13 -32 11 -15 22 -44 26 -64 4 -21 16 -42 26 -48 11 -5 19 -18 19 -29 0
-10 5 -22 11 -26 6 -3 9 -14 6 -23 -4 -17 14 -41 33 -41 5 0 10 -9 10 -19 0
-11 5 -23 10 -26 6 -3 10 -19 10 -36 0 -16 4 -29 10 -29 5 0 9 -12 10 -27 0
-16 3 -52 6 -82 5 -42 3 -52 -7 -46 -9 6 -11 1 -6 -23 8 -38 -27 -143 -78
-239 -60 -113 -94 -143 -164 -143 -49 0 -80 15 -119 59 -69 79 -99 307 -71
546 38 332 26 500 -40 553 -10 8 -36 11 -68 9 -39 -3 -53 0 -53 10 0 7 6 13
12 13 7 0 3 7 -9 15 l-22 16 37 34 c20 18 39 29 41 23 2 -6 -4 -17 -13 -23z
m1259 -68 c21 -18 28 -34 31 -72 2 -32 1 -41 -4 -23 l-7 26 -40 -23 c-22 -14
-55 -32 -72 -41 -33 -16 -40 -28 -24 -38 12 -8 22 -62 15 -81 -4 -8 -12 -15
-20 -15 -22 0 -16 -16 10 -28 32 -14 53 -59 62 -130 4 -31 7 -61 8 -67 1 -5 5
-16 10 -23 4 -7 3 -19 -4 -27 -12 -15 -5 -55 12 -66 27 -17 -72 -129 -114
-129 -30 0 -85 45 -107 88 -79 156 -37 532 71 628 56 51 128 60 173 21z
m-1606 -144 c7 -13 23 -17 71 -18 58 0 64 -2 84 -30 12 -16 27 -34 34 -38 15
-10 16 -54 1 -59 -12 -4 -20 -106 -9 -113 8 -5 5 -121 -5 -173 -4 -19 -1 -39
5 -47 8 -9 7 -17 -3 -27 -8 -7 -17 -32 -20 -56 -9 -52 -71 -240 -102 -309 -8
-17 -15 -35 -15 -40 0 -6 -6 -23 -14 -39 -8 -16 -30 -63 -49 -105 -38 -84 -52
-98 -74 -77 -18 19 -49 139 -62 248 -13 104 -14 351 -1 485 5 55 13 151 16
212 l7 113 43 25 c24 14 48 34 54 45 13 25 26 25 39 3z"/>
<path d="M8596 7731 c-3 -4 -31 -11 -61 -14 -31 -3 -62 -10 -68 -15 -7 -6 -34
-13 -62 -17 -27 -4 -54 -11 -60 -15 -5 -4 -28 -10 -50 -14 -22 -4 -98 -25
-170 -47 -71 -22 -147 -45 -167 -51 -40 -12 -57 -35 -32 -45 21 -8 261 34 298
52 16 8 36 15 44 15 9 0 29 4 46 10 17 5 72 21 121 37 50 15 97 33 105 39 8 7
18 13 23 13 16 0 97 34 97 41 0 17 -55 27 -64 11z"/>
<path d="M4195 6747 c6 -23 4 -27 -13 -27 -14 0 -21 -8 -24 -29 -2 -17 -1 -28
3 -25 14 8 59 -15 59 -31 0 -11 10 -15 36 -15 29 0 35 3 30 16 -4 10 1 18 13
21 14 3 21 15 23 37 2 22 8 31 21 30 9 -1 17 3 17 8 0 6 -11 8 -25 6 -14 -3
-30 1 -36 8 -15 19 -58 18 -65 -1 -5 -13 -10 -11 -26 7 l-20 23 7 -28z"/>
<path d="M0 1950 l0 -1950 1865 0 c1139 0 1865 4 1865 9 0 5 -11 18 -25 29
-18 14 -25 30 -25 53 -1 49 -42 89 -90 89 -11 0 -20 7 -20 15 0 9 -11 20 -25
25 -14 5 -25 17 -25 25 0 9 -7 18 -15 21 -8 4 -15 14 -15 23 0 10 -18 37 -40
61 -22 23 -37 47 -34 51 3 5 -8 14 -23 21 -15 7 -30 15 -33 19 -3 3 -20 14
-38 25 -27 15 -34 16 -41 5 -7 -11 -12 -11 -30 0 -16 11 -21 24 -21 55 0 25
-6 47 -15 54 -8 7 -15 23 -15 36 0 13 -5 24 -11 24 -6 0 -20 11 -31 25 -11 14
-28 25 -39 25 -13 0 -19 7 -19 21 0 32 -19 59 -40 59 -11 0 -20 7 -20 15 0 8
-7 15 -15 15 -25 0 -92 53 -112 89 -10 19 -22 42 -28 52 -5 10 -25 26 -45 36
-19 10 -37 20 -40 23 -3 3 -22 14 -42 24 -21 11 -38 25 -38 33 0 7 -4 13 -9
13 -5 0 -17 24 -25 53 -18 59 -29 79 -42 75 -5 -1 -32 10 -61 26 -39 22 -55
37 -63 62 -8 23 -20 36 -36 40 -22 6 -29 16 -25 37 1 5 -11 13 -27 19 -33 13
-62 50 -43 56 17 6 13 47 -7 65 -22 20 -58 22 -66 5 -5 -10 -7 -10 -12 0 -3 6
-19 12 -35 12 -27 0 -29 2 -29 41 l0 41 -42 -2 c-24 -1 -49 -1 -55 -1 -18 1
-16 40 2 47 8 4 15 12 15 20 0 8 5 14 12 14 9 0 9 3 0 12 -7 7 -12 24 -12 38
0 20 -8 30 -34 42 -19 9 -43 14 -53 12 -22 -6 -53 19 -53 42 0 8 -8 14 -18 14
-12 0 -26 15 -38 40 -17 35 -23 40 -55 40 -49 0 -69 24 -69 84 0 48 -16 76
-42 76 -18 0 -42 57 -39 93 3 33 -32 94 -59 102 -11 4 -20 15 -20 26 0 11 -7
19 -16 19 -9 0 -34 19 -56 42 -36 39 -39 45 -32 82 3 23 11 46 16 53 11 13
-13 31 -101 74 -35 17 -50 30 -51 44 0 29 -38 86 -61 92 -10 3 -19 13 -19 22
-1 17 -66 55 -80 46 -13 -8 -78 63 -90 99 -11 34 -33 51 -52 40 -14 -9 -48 26
-48 49 0 21 -96 117 -117 117 -7 0 -18 9 -25 20 -7 11 -18 20 -25 20 -7 0 -13
7 -13 15 0 9 -7 18 -15 21 -8 4 -15 15 -15 25 0 11 -7 19 -17 19 -18 1 -63 33
-63 45 0 11 -28 35 -40 35 -12 0 -40 24 -40 35 0 14 -46 44 -69 45 -13 0 -32
11 -43 25 -10 13 -31 30 -45 37 -15 8 -30 27 -37 48 -6 19 -18 35 -26 35 -23
0 -40 18 -28 32 11 13 -22 38 -75 57 -17 6 -32 18 -32 26 0 8 -24 27 -53 41
-30 15 -70 42 -90 60 -21 18 -53 41 -72 50 -19 9 -41 28 -49 42 -8 15 -23 27
-33 27 -11 0 -18 7 -18 20 0 16 -26 40 -44 40 -3 0 -6 -877 -6 -1950z"/>
</g>
</svg>
